<?xml version="1.0" encoding="UTF-8"?>
<svg version="1.1" xmlns="http://www.w3.org/2000/svg" width="1280" height="720">
<path d="M0 0 C422.4 0 844.8 0 1280 0 C1280 237.6 1280 475.2 1280 720 C857.6 720 435.2 720 0 720 C0 482.4 0 244.8 0 0 Z " fill="#FEFEFE" transform="translate(0,0)"/>
<path d="M0 0 C5.47880468 4.6961183 9.41408281 9.67603507 10 17 C10.103125 18.27875 10.20625 19.5575 10.3125 20.875 C10.28543407 25.54838323 8.34947669 29.05623555 6 33 C5.34 33 4.68 33 4 33 C3.89042969 33.63808594 3.78085937 34.27617187 3.66796875 34.93359375 C3.43013672 36.17302734 3.43013672 36.17302734 3.1875 37.4375 C2.96126953 38.67306641 2.96126953 38.67306641 2.73046875 39.93359375 C2.48941406 40.61550781 2.24835938 41.29742187 2 42 C0.515 42.495 0.515 42.495 -1 43 C-1.33 44.98 -1.66 46.96 -2 49 C-3.485 49.495 -3.485 49.495 -5 50 C-5.33 51.65 -5.66 53.3 -6 55 C-6.66 55 -7.32 55 -8 55 C-8.33 56.65 -8.66 58.3 -9 60 C-9.66 60 -10.32 60 -11 60 C-11.99 62.97 -12.98 65.94 -14 69 C-14.66 69 -15.32 69 -16 69 C-16.18369141 69.85851562 -16.18369141 69.85851562 -16.37109375 70.734375 C-17.02762868 73.09953191 -17.93723512 75.07206797 -19.0625 77.25 C-19.42472656 77.95640625 -19.78695312 78.6628125 -20.16015625 79.390625 C-20.43730469 79.92171875 -20.71445312 80.4528125 -21 81 C-21.66 81 -22.32 81 -23 81 C-23.144375 81.78375 -23.28875 82.5675 -23.4375 83.375 C-24 86 -24 86 -25 88 C-25.66 88 -26.32 88 -27 88 C-27.185625 89.4540625 -27.185625 89.4540625 -27.375 90.9375 C-27.58125 91.948125 -27.7875 92.95875 -28 94 C-28.99 94.495 -28.99 94.495 -30 95 C-30.495 96.485 -30.495 96.485 -31 98 C-32 101 -32 101 -34 102 C-34.495 103.485 -34.495 103.485 -35 105 C-40.37142857 109 -40.37142857 109 -43 109 C-43 109.66 -43 110.32 -43 111 C-46.3453879 112.1151293 -48.91758812 112.13299072 -52.4375 112.125 C-53.57058594 112.12757813 -54.70367188 112.13015625 -55.87109375 112.1328125 C-61.93252005 111.87552349 -63.82722998 110.47809466 -68 106 C-68.9075 105.13375 -69.815 104.2675 -70.75 103.375 C-74.60182042 99.30918956 -74.15309519 95.23344288 -74.125 89.9375 C-74.12886719 89.20466797 -74.13273438 88.47183594 -74.13671875 87.71679688 C-74.12668491 82.25336982 -74.12668491 82.25336982 -73 80 C-72.34 80 -71.68 80 -71 80 C-70.896875 79.278125 -70.79375 78.55625 -70.6875 77.8125 C-69.93206053 74.72206579 -68.84468685 72.58256159 -67 70 C-66.34 70 -65.68 70 -65 70 C-64.855625 69.21625 -64.71125 68.4325 -64.5625 67.625 C-64 65 -64 65 -63 63 C-62.34 63 -61.68 63 -61 63 C-60.67 61.35 -60.34 59.7 -60 58 C-59.34 58 -58.68 58 -58 58 C-57.01 54.7 -56.02 51.4 -55 48 C-54.34 48 -53.68 48 -53 48 C-52.67 46.68 -52.34 45.36 -52 44 C-51.34 44 -50.68 44 -50 44 C-49.91878906 43.32582031 -49.83757813 42.65164062 -49.75390625 41.95703125 C-48.77189506 38.10530859 -46.96156811 35.08192164 -44.9375 31.6875 C-44.56044922 31.04232422 -44.18339844 30.39714844 -43.79492188 29.73242188 C-42.86962507 28.15121848 -41.93567319 26.5750854 -41 25 C-40.34 25 -39.68 25 -39 25 C-38.92136719 24.3296875 -38.84273437 23.659375 -38.76171875 22.96875 C-37.75235609 19.03482374 -35.90307388 15.95577679 -33.8125 12.5 C-33.43802734 11.84902344 -33.06355469 11.19804687 -32.67773438 10.52734375 C-29.49442681 5.21288424 -25.97595404 1.4533729 -20.3125 -1.3125 C-13.66851747 -2.69143977 -6.19114655 -3.09557327 0 0 Z " fill="#FE747C" transform="translate(611,164)"/>
<path d="M0 0 C3.19872952 1.93697054 5.30686454 4.171998 7.375 7.3125 C7.89707031 8.05628906 8.41914062 8.80007812 8.95703125 9.56640625 C10.66033969 12.86510001 10.7759072 15.11640611 10.75 18.8125 C10.76160156 20.46765625 10.76160156 20.46765625 10.7734375 22.15625 C10.33634414 25.61871508 9.4855509 27.55334077 7.375 30.3125 C6.715 30.3125 6.055 30.3125 5.375 30.3125 C5.189375 31.67375 5.189375 31.67375 5 33.0625 C4.45390323 35.90220323 3.80236197 37.83840591 2.375 40.3125 C1.715 40.3125 1.055 40.3125 0.375 40.3125 C0.045 42.2925 -0.285 44.2725 -0.625 46.3125 C-2.11 46.8075 -2.11 46.8075 -3.625 47.3125 C-3.8415625 48.488125 -3.8415625 48.488125 -4.0625 49.6875 C-4.625 52.3125 -4.625 52.3125 -5.625 54.3125 C-6.285 54.3125 -6.945 54.3125 -7.625 54.3125 C-7.955 55.9625 -8.285 57.6125 -8.625 59.3125 C-9.285 59.3125 -9.945 59.3125 -10.625 59.3125 C-10.74746094 59.87453125 -10.86992188 60.4365625 -10.99609375 61.015625 C-11.6769869 63.50236519 -12.61852325 65.71764776 -13.6875 68.0625 C-14.04972656 68.86171875 -14.41195312 69.6609375 -14.78515625 70.484375 C-15.06230469 71.08765625 -15.33945312 71.6909375 -15.625 72.3125 C-16.285 72.3125 -16.945 72.3125 -17.625 72.3125 C-18.00785156 73.32376953 -18.00785156 73.32376953 -18.3984375 74.35546875 C-19.85368805 77.86382756 -21.53447835 81.23928552 -23.25 84.625 C-23.57484375 85.27017578 -23.8996875 85.91535156 -24.234375 86.58007812 C-25.02941956 88.15847541 -25.82695634 89.73561694 -26.625 91.3125 C-27.285 91.3125 -27.945 91.3125 -28.625 91.3125 C-29.285 92.9625 -29.945 94.6125 -30.625 96.3125 C-31.285 96.3125 -31.945 96.3125 -32.625 96.3125 C-32.625 96.9725 -32.625 97.6325 -32.625 98.3125 C-34.605 98.8075 -34.605 98.8075 -36.625 99.3125 C-36.625 99.9725 -36.625 100.6325 -36.625 101.3125 C-43.2893709 103.53395697 -48.65804067 104.40038509 -55.375 101.9375 C-56.4475 101.40125 -57.52 100.865 -58.625 100.3125 C-59.346875 100.044375 -60.06875 99.77625 -60.8125 99.5 C-63.63308634 97.65202964 -64.97370489 95.20226645 -66.625 92.3125 C-66.625 91.3225 -66.625 90.3325 -66.625 89.3125 C-67.285 89.3125 -67.945 89.3125 -68.625 89.3125 C-69.88737731 86.78774538 -69.72356404 85.00049534 -69.6875 82.1875 C-69.67847656 81.27742188 -69.66945313 80.36734375 -69.66015625 79.4296875 C-69.64855469 78.73101562 -69.63695312 78.03234375 -69.625 77.3125 C-68.965 77.3125 -68.305 77.3125 -67.625 77.3125 C-67.58375 76.19875 -67.5425 75.085 -67.5 73.9375 C-66.91023433 69.25213938 -64.91495361 66.10878716 -62.390625 62.1875 C-60.29797077 58.77999222 -58.51567741 55.27230528 -56.75 51.6875 C-56.43981934 51.0589209 -56.12963867 50.4303418 -55.81005859 49.78271484 C-55.07842656 48.29425058 -54.35121915 46.80361269 -53.625 45.3125 C-52.965 45.3125 -52.305 45.3125 -51.625 45.3125 C-51.625 44.6525 -51.625 43.9925 -51.625 43.3125 C-50.635 42.8175 -50.635 42.8175 -49.625 42.3125 C-48.82647986 40.59681898 -48.82647986 40.59681898 -48.1875 38.5625 C-46.9933472 35.20922244 -45.71916485 32.22612066 -43.625 29.3125 C-42.965 29.3125 -42.305 29.3125 -41.625 29.3125 C-41.480625 28.52875 -41.33625 27.745 -41.1875 26.9375 C-40.625 24.3125 -40.625 24.3125 -39.625 22.3125 C-38.965 22.3125 -38.305 22.3125 -37.625 22.3125 C-37.480625 21.52875 -37.33625 20.745 -37.1875 19.9375 C-36.625 17.3125 -36.625 17.3125 -35.625 15.3125 C-34.965 15.3125 -34.305 15.3125 -33.625 15.3125 C-33.5425 14.61125 -33.46 13.91 -33.375 13.1875 C-31.87734654 7.44649505 -28.45137551 3.60856133 -23.625 0.3125 C-16.64519202 -3.0797843 -7.07768752 -3.29225766 0 0 Z " fill="#FE4664" transform="translate(646.625,225.6875)"/>
<path d="M0 0 C0.73240402 -0.00095673 1.46480804 -0.00191345 2.21940613 -0.00289917 C3.76679572 -0.0035784 5.31418818 -0.00174202 6.86157227 0.00244141 C9.21181771 0.00777021 11.56187003 0.00249969 13.91210938 -0.00390625 C15.42057333 -0.00324497 16.92903717 -0.00196279 18.4375 0 C19.13253128 -0.00202423 19.82756256 -0.00404846 20.5436554 -0.00613403 C24.94322785 0.01464952 29.0897462 0.42370649 33.41796875 1.1328125 C33.41796875 1.7928125 33.41796875 2.4528125 33.41796875 3.1328125 C34.73796875 3.1328125 36.05796875 3.1328125 37.41796875 3.1328125 C37.41796875 3.7928125 37.41796875 4.4528125 37.41796875 5.1328125 C38.30484375 5.1946875 39.19171875 5.2565625 40.10546875 5.3203125 C44.18991461 6.32215771 45.76510475 7.93377061 48.41796875 11.1328125 C48.41796875 11.7928125 48.41796875 12.4528125 48.41796875 13.1328125 C49.07796875 13.1328125 49.73796875 13.1328125 50.41796875 13.1328125 C53.22444107 22.25384753 53.78778934 32.09556639 50.41796875 41.1328125 C47.77229019 44.99239063 44.52261308 48.80684738 40.41796875 51.1328125 C39.09796875 51.1328125 37.77796875 51.1328125 36.41796875 51.1328125 C36.41796875 51.7928125 36.41796875 52.4528125 36.41796875 53.1328125 C32.62259244 54.35155 28.99005254 54.24619378 25.02734375 54.23046875 C24.3227301 54.2290538 23.61811646 54.22763885 22.89215088 54.22618103 C20.65071291 54.22060183 18.40937632 54.20805323 16.16796875 54.1953125 C14.6445327 54.19029481 13.12109507 54.18573237 11.59765625 54.18164062 C7.87106103 54.17063924 4.14452479 54.15338896 0.41796875 54.1328125 C0.42320557 55.02589111 0.42844238 55.91896973 0.43383789 56.83911133 C0.45088661 60.15454758 0.46342222 63.4699372 0.47290039 66.78540039 C0.47792717 68.21997818 0.48474954 69.65455086 0.4934082 71.08911133 C0.50554627 73.15186832 0.51121361 75.21455754 0.515625 77.27734375 C0.52086182 78.51846924 0.52609863 79.75959473 0.53149414 81.03833008 C0.41796875 84.1328125 0.41796875 84.1328125 -0.58203125 87.1328125 C-2.90889578 88.29624477 -4.42924538 88.33177238 -7.01953125 88.3828125 C-8.19322266 88.42148437 -8.19322266 88.42148437 -9.390625 88.4609375 C-11.58203125 88.1328125 -11.58203125 88.1328125 -13.19770813 87.09831238 C-15.33198111 84.06801315 -14.97419505 80.92772386 -14.92260742 77.35668945 C-14.9230455 76.56621216 -14.92348358 75.77573486 -14.92393494 74.96130371 C-14.92184436 72.34764942 -14.89850101 69.73463603 -14.875 67.12109375 C-14.86940499 65.309345 -14.86513445 63.49759171 -14.86213684 61.68583679 C-14.85068054 56.9165291 -14.82120662 52.14749534 -14.7880249 47.3782959 C-14.75734093 42.51200059 -14.74363508 37.64566103 -14.72851562 32.77929688 C-14.69633766 23.23034837 -14.64513182 13.68160321 -14.58203125 4.1328125 C-13.59203125 3.8028125 -12.60203125 3.4728125 -11.58203125 3.1328125 C-11.58203125 2.4728125 -11.58203125 1.8128125 -11.58203125 1.1328125 C-7.76458211 -0.09712552 -3.96559648 -0.01144949 0 0 Z " fill="#3C3C3C" transform="translate(451.58203125,350.8671875)"/>
<path d="M0 0 C4.1255095 0.66302831 5.05150766 1.24132977 7.5 4.5625 C7.91786702 7.36946003 8.10474313 9.80101941 8.109375 12.609375 C8.13417938 13.76617767 8.13417938 13.76617767 8.15948486 14.9463501 C8.20794593 17.40181454 8.22933037 19.85665984 8.25 22.3125 C8.27816146 23.98049987 8.30808914 25.64847092 8.33984375 27.31640625 C8.41370372 31.3983865 8.46328936 35.48002345 8.5 39.5625 C12.026449 37.57424362 14.0341751 36.42694746 15.5 32.5625 C16.16 32.5625 16.82 32.5625 17.5 32.5625 C17.5 31.9025 17.5 31.2425 17.5 30.5625 C22.97619048 25.5625 22.97619048 25.5625 25.5 25.5625 C26.16 24.2425 26.82 22.9225 27.5 21.5625 C28.16 21.5625 28.82 21.5625 29.5 21.5625 C29.995 20.0775 29.995 20.0775 30.5 18.5625 C32.13671875 16.9140625 32.13671875 16.9140625 34.1875 15.1875 C34.90808594 14.57390625 35.62867188 13.9603125 36.37109375 13.328125 C37.64873395 12.26850414 38.93110154 11.2144906 40.22265625 10.171875 C42.68879853 8.17877792 44.6008392 6.41937339 46.4375 3.8125 C48.5 1.5625 48.5 1.5625 51.9375 0.5 C55.5 0.5625 55.5 0.5625 58.5 2.0625 C60.5 4.5625 60.5 4.5625 60.625 8 C59.33040667 12.09954555 57.82361863 13.88739232 54.5 16.5625 C53.84 16.5625 53.18 16.5625 52.5 16.5625 C52.005 18.0475 52.005 18.0475 51.5 19.5625 C49.72265625 21.38671875 49.72265625 21.38671875 47.5625 23.25 C46.85222656 23.87261719 46.14195312 24.49523437 45.41015625 25.13671875 C43.5 26.5625 43.5 26.5625 41.5 26.5625 C41.005 28.0475 41.005 28.0475 40.5 29.5625 C38.93359375 31.140625 38.93359375 31.140625 36.9375 32.8125 C36.22335937 33.41964844 35.50921875 34.02679688 34.7734375 34.65234375 C34.02320313 35.28269531 33.27296875 35.91304688 32.5 36.5625 C31.01702604 37.82888842 29.53767375 39.09953389 28.0625 40.375 C27.40378906 40.93832031 26.74507813 41.50164062 26.06640625 42.08203125 C24.38980014 43.49719208 24.38980014 43.49719208 23.5 45.5625 C24.08265625 45.66691406 24.6653125 45.77132812 25.265625 45.87890625 C27.83645423 46.66543617 29.2340058 47.73815891 31.25 49.5 C31.86359375 50.02464844 32.4771875 50.54929687 33.109375 51.08984375 C34.5 52.5625 34.5 52.5625 34.5 54.5625 C35.49 54.8925 36.48 55.2225 37.5 55.5625 C39.20174252 57.19333658 40.8614964 58.86813832 42.5 60.5625 C43.61818026 61.62182867 44.74357608 62.67357813 45.875 63.71875 C46.46796875 64.26660156 47.0609375 64.81445312 47.671875 65.37890625 C48.27515625 65.93449219 48.8784375 66.49007812 49.5 67.0625 C53.58175643 70.82155346 57.60468673 74.60990271 61.5 78.5625 C61.83 78.8925 62.16 79.2225 62.5 79.5625 C62.80912771 82.42193129 62.64619401 84.22442635 61.5 86.875 C58.92510965 89.04756373 56.78941694 89.18839838 53.47265625 89.0078125 C50.16041322 88.26009823 48.6909025 86.07402238 46.5 83.5625 C44.26626061 81.75615479 41.98112327 80.03273635 39.68359375 78.30859375 C37.44141896 76.51565612 35.42316462 74.69498866 33.5 72.5625 C33.5 71.9025 33.5 71.2425 33.5 70.5625 C32.51 70.2325 31.52 69.9025 30.5 69.5625 C28.81267723 67.57989574 27.14633943 65.5792658 25.5 63.5625 C24.51 62.9025 23.52 62.2425 22.5 61.5625 C22.5 60.9025 22.5 60.2425 22.5 59.5625 C21.943125 59.52125 21.38625 59.48 20.8125 59.4375 C17.32653414 58.11848589 15.78404524 55.43219787 13.5 52.5625 C12.51 51.9025 11.52 51.2425 10.5 50.5625 C10.5 49.9025 10.5 49.2425 10.5 48.5625 C9.51 48.5625 8.52 48.5625 7.5 48.5625 C7.52356567 50.22019409 7.52356567 50.22019409 7.54760742 51.91137695 C7.60188557 56.00944741 7.63634224 60.10748607 7.66479492 64.20581055 C7.67988641 65.97995343 7.70036191 67.75405898 7.72631836 69.52807617 C7.76268641 72.07740487 7.77972238 74.62624059 7.79296875 77.17578125 C7.80845261 77.96962723 7.82393646 78.76347321 7.83988953 79.58137512 C7.84156805 85.06705126 7.84156805 85.06705126 6.11865234 87.56616211 C3.95511991 88.89789301 2.4622361 88.89568735 -0.0625 88.8125 C-0.84753906 88.79703125 -1.63257813 88.7815625 -2.44140625 88.765625 C-4.5 88.5625 -4.5 88.5625 -6.5 87.5625 C-7.68702006 84.00143983 -7.66315909 80.7563261 -7.67700195 77.04931641 C-7.68357315 76.28637772 -7.69014435 75.52343903 -7.69691467 74.73738098 C-7.71662362 72.21294047 -7.72830373 69.68855934 -7.73828125 67.1640625 C-7.74235678 66.30148205 -7.7464323 65.4389016 -7.75063133 64.55018234 C-7.77147995 59.98625682 -7.78578794 55.42236127 -7.79516602 50.85839844 C-7.80623928 46.14494751 -7.84065297 41.43196752 -7.88033772 36.71868324 C-7.90647775 33.09326294 -7.91485542 29.46795544 -7.91844749 25.84244919 C-7.92331876 24.10491117 -7.93494815 22.36737836 -7.95348549 20.6299324 C-7.97782629 18.19773177 -7.97692187 15.76675772 -7.9699707 13.33447266 C-7.98278076 12.61845383 -7.99559082 11.902435 -8.00878906 11.16471863 C-7.97205182 7.63450675 -7.55125786 5.64602982 -5.68937683 2.61190796 C-3.5 0.5625 -3.5 0.5625 0 0 Z " fill="#393939" transform="translate(362.5,350.4375)"/>
<path d="M0 0 C4.71142393 3.14094929 6.65846613 9.03021382 9 14 C9.37898437 14.680625 9.75796875 15.36125 10.1484375 16.0625 C11 18 11 18 11 22 C11.66 22 12.32 22 13 22 C13.33 23.98 13.66 25.96 14 28 C14.66 28 15.32 28 16 28 C16.66 30.97 17.32 33.94 18 37 C18.66 37 19.32 37 20 37 C20.50757862 38.41396902 21.00574925 39.83131729 21.5 41.25 C21.7784375 42.03890625 22.056875 42.8278125 22.34375 43.640625 C23 46 23 46 23 50 C23.66 50 24.32 50 25 50 C25.495 52.475 25.495 52.475 26 55 C26.66 55 27.32 55 28 55 C28.66 58.3 29.32 61.6 30 65 C30.66 65 31.32 65 32 65 C32 65.99 32 66.98 32 68 C32.66 68 33.32 68 34 68 C34.17015625 67.23816406 34.3403125 66.47632813 34.515625 65.69140625 C36.06563881 59.08735803 37.97721166 53.07626488 41 47 C41.66 47 42.32 47 43 47 C43.66 43.7 44.32 40.4 45 37 C45.66 37 46.32 37 47 37 C47.19335938 36.41992188 47.38671875 35.83984375 47.5859375 35.2421875 C49.05729167 30.828125 50.52864583 26.4140625 52 22 C52.66 22 53.32 22 54 22 C54.99 17.545 54.99 17.545 56 13 C56.66 13 57.32 13 58 13 C58.09796875 12.39671875 58.1959375 11.7934375 58.296875 11.171875 C58.98073509 7.51676071 59.6189108 4.60094836 61.625 1.4375 C65.07233861 -0.64904706 68.07484015 -0.79629267 72 0 C74.5 1.6875 74.5 1.6875 76 4 C76.25 6.75 76.25 6.75 76 9 C75.34 9 74.68 9 74 9 C73.67 10.98 73.34 12.96 73 15 C72.34 15 71.68 15 71 15 C70.01 19.455 70.01 19.455 69 24 C68.34 24 67.68 24 67 24 C66.86722656 24.61488281 66.73445312 25.22976563 66.59765625 25.86328125 C66.42105469 26.67152344 66.24445313 27.47976563 66.0625 28.3125 C65.88847656 29.11300781 65.71445312 29.91351563 65.53515625 30.73828125 C65 33 65 33 64 36 C63.34 36 62.68 36 62 36 C61.87753906 36.71542969 61.75507812 37.43085938 61.62890625 38.16796875 C60.98864625 41.05112713 60.06448444 43.58592473 58.9375 46.3125 C58.39416016 47.63701172 58.39416016 47.63701172 57.83984375 48.98828125 C57.42412109 49.98408203 57.42412109 49.98408203 57 51 C56.34 51 55.68 51 55 51 C54.67 52.98 54.34 54.96 54 57 C53.34 57 52.68 57 52 57 C51.86722656 57.61488281 51.73445312 58.22976563 51.59765625 58.86328125 C51.42105469 59.67152344 51.24445312 60.47976563 51.0625 61.3125 C50.88847656 62.11300781 50.71445312 62.91351563 50.53515625 63.73828125 C50 66 50 66 49 69 C48.34 69 47.68 69 47 69 C47 69.99 47 70.98 47 72 C46.34 72 45.68 72 45 72 C44.855625 72.94875 44.71125 73.8975 44.5625 74.875 C44 78 44 78 43 80 C42.34 80 41.68 80 41 80 C40.896875 80.763125 40.79375 81.52625 40.6875 82.3125 C39.92373001 85.29814632 39.38058257 86.12727504 37 88 C33.49552068 88.995248 30.49659849 89.03703465 27 88 C22.80437831 83.64494468 20.3188115 78.05741856 20 72 C19.34 72 18.68 72 18 72 C17.67 70.02 17.34 68.04 17 66 C16.34 66 15.68 66 15 66 C14.34 63.03 13.68 60.06 13 57 C12.34 57 11.68 57 11 57 C10.67 55.02 10.34 53.04 10 51 C9.34 51 8.68 51 8 51 C7.35089846 49.41800369 6.70585306 47.83434276 6.0625 46.25 C5.70285156 45.36828125 5.34320312 44.4865625 4.97265625 43.578125 C4.14643424 41.38813896 3.50630057 39.28101729 3 37 C2.34 37 1.68 37 1 37 C0.49487756 35.39743892 -0.00391627 33.79288208 -0.5 32.1875 C-0.7784375 31.29417969 -1.056875 30.40085937 -1.34375 29.48046875 C-2 27 -2 27 -2 24 C-2.66 24 -3.32 24 -4 24 C-4.67119549 22.5437455 -5.33681807 21.08492133 -6 19.625 C-6.37125 18.81289063 -6.7425 18.00078125 -7.125 17.1640625 C-8 15 -8 15 -8 13 C-8.66 13 -9.32 13 -10 13 C-10.2226746 11.56465159 -10.42761906 10.12654475 -10.625 8.6875 C-10.74101563 7.88699219 -10.85703125 7.08648437 -10.9765625 6.26171875 C-11 4 -11 4 -9 1 C-5.68377419 -0.1054086 -3.47482175 -0.35457365 0 0 Z " fill="#3C3C3C" transform="translate(555,351)"/>
<path d="M0 0 C3.41110512 2.68533807 4.77441412 4.08030373 5.8125 8.3125 C5.874375 9.199375 5.93625 10.08625 6 11 C6.66 11 7.32 11 8 11 C8.86413083 16.24929175 9.17342559 21.32105182 9.203125 26.63671875 C9.20882507 27.43858109 9.21452515 28.24044342 9.22039795 29.06660461 C9.22978755 30.7498749 9.23635768 32.43316307 9.24023438 34.11645508 C9.25001173 36.69058696 9.28111937 39.26394314 9.3125 41.83789062 C9.31902454 43.47916196 9.32427716 45.12043895 9.328125 46.76171875 C9.3404718 47.52844406 9.3528186 48.29516937 9.36553955 49.08512878 C9.35195736 52.33402903 9.21105504 54.62042122 7.61645508 57.48828125 C6 59 6 59 3.80859375 59.42578125 C3.02613281 59.38839844 2.24367188 59.35101563 1.4375 59.3125 C0.65246094 59.28800781 -0.13257813 59.26351562 -0.94140625 59.23828125 C-3 59 -3 59 -5 58 C-6.125 55.9375 -6.125 55.9375 -7 54 C-7.969375 54.825 -8.93875 55.65 -9.9375 56.5 C-14.39821101 59.30593112 -18.43183332 59.52705115 -23.5625 59.5625 C-24.28236084 59.57667969 -25.00222168 59.59085937 -25.74389648 59.60546875 C-31.21500887 59.50536835 -34.47781955 58.07327157 -39 55 C-44.08683932 49.6454323 -44.35763894 44.85677547 -44.28125 37.6953125 C-43.88199266 33.8690963 -42.59110888 31.80119879 -40 29 C-34.06658206 24.58797128 -28.09103613 24.86096008 -21 25 C-21 24.34 -21 23.68 -21 23 C-16.05 23 -11.1 23 -6 23 C-6.226875 21.22625 -6.45375 19.4525 -6.6875 17.625 C-6.81511719 16.62726563 -6.94273437 15.62953125 -7.07421875 14.6015625 C-7.75510016 11.75581595 -7.75510016 11.75581595 -10.58203125 10.6484375 C-11.37996094 10.43445313 -12.17789063 10.22046875 -13 10 C-13 9.34 -13 8.68 -13 8 C-18.18323799 9.1230349 -23.34755156 10.30520397 -28.5 11.5625 C-29.5209375 11.81128906 -30.541875 12.06007813 -31.59375 12.31640625 C-33.93192957 12.76961126 -33.93192957 12.76961126 -35 14 C-37.7592273 14.29044498 -39.43697676 14.3190465 -41.875 12.9375 C-43 11 -43 11 -43.125 7.5625 C-42 4 -42 4 -39.0625 1.75 C-37.72643395 1.12632329 -36.37004734 0.54499121 -35 0 C-34.31035156 -0.2990625 -33.62070312 -0.598125 -32.91015625 -0.90625 C-23.11515467 -4.52286597 -9.23284223 -5.14908509 0 0 Z " fill="#3E3E3E" transform="translate(675,380)"/>
<path d="M0 0 C2.31 0 4.62 0 7 0 C7 0.66 7 1.32 7 2 C8.32 2.66 9.64 3.32 11 4 C11.01458252 5.18553467 11.02916504 6.37106934 11.04418945 7.5925293 C11.10225938 12.00038477 11.17949184 16.40773404 11.26245117 20.81518555 C11.29565962 22.72102631 11.32370425 24.62696446 11.34643555 26.53295898 C11.38005668 29.27630015 11.43237595 32.01875222 11.48828125 34.76171875 C11.49467117 35.61086349 11.5010611 36.46000824 11.50764465 37.33488464 C11.62340817 42.01622454 11.95393985 45.20421225 15 49 C18.44894392 50.72447196 22.22156745 50.36671096 26 50 C29.72210861 48.38169191 31.89930441 46.46614772 34 43 C35.34007638 39.09754759 35.22485442 35.03392586 35.31640625 30.953125 C35.33718735 30.18192322 35.35796844 29.41072144 35.37937927 28.6161499 C35.44458572 26.16085428 35.50362484 23.70545479 35.5625 21.25 C35.60571274 19.58202065 35.6493279 17.91405168 35.69335938 16.24609375 C35.80023736 12.16416804 35.90158566 8.08213818 36 4 C36.66 4 37.32 4 38 4 C38 3.34 38 2.68 38 2 C39.39039057 1.72131605 40.78795546 1.47831069 42.1875 1.25 C42.96480469 1.11078125 43.74210938 0.9715625 44.54296875 0.828125 C48.32919389 1.09298018 49.48665031 2.13859656 52 5 C52.7542075 8.85575421 52.65207793 12.67253959 52.59375 16.58984375 C52.59379028 17.72651993 52.59383057 18.86319611 52.59387207 20.03431702 C52.58851188 22.43756642 52.5709082 24.84081507 52.54199219 27.24389648 C52.50019549 30.92030507 52.50091871 34.59487864 52.5078125 38.27148438 C52.49731808 40.60678355 52.48437863 42.94207329 52.46875 45.27734375 C52.46854858 46.37642563 52.46834717 47.47550751 52.46813965 48.6078949 C52.45222778 49.63568558 52.43631592 50.66347626 52.41992188 51.72241211 C52.41150269 52.62301865 52.4030835 53.52362518 52.39440918 54.45152283 C51.91284128 57.56317658 50.85812225 59.47513833 49 62 C46.58984375 62.59375 46.58984375 62.59375 43.9375 62.5 C43.05964844 62.4896875 42.18179688 62.479375 41.27734375 62.46875 C39 62 39 62 37 59 C36.875 55.8125 36.875 55.8125 37 53 C36.34 53 35.68 53 35 53 C34.731875 53.5775 34.46375 54.155 34.1875 54.75 C31.141542 60.52128884 31.141542 60.52128884 27.94140625 61.86328125 C20.56570327 63.25606588 12.17620605 64.17941948 5.3203125 60.6015625 C2.48715704 58.64601749 0.23671583 56.62015282 -2 54 C-2 52.68 -2 51.36 -2 50 C-2.66 50 -3.32 50 -4 50 C-5.22031898 45.24962333 -5.12723661 40.62833736 -5.09765625 35.76171875 C-5.0962413 34.88095169 -5.09482635 34.00018463 -5.09336853 33.09272766 C-5.08778937 30.29094997 -5.07524071 27.48925338 -5.0625 24.6875 C-5.05748231 22.78320428 -5.05291987 20.87890731 -5.04882812 18.97460938 C-5.03782677 14.31637519 -5.02057649 9.65820133 -5 5 C-4.34 5 -3.68 5 -3 5 C-2.67 4.01 -2.34 3.02 -2 2 C-1.34 2 -0.68 2 0 2 C0 1.34 0 0.68 0 0 Z " fill="#3D3D3D" transform="translate(704,377)"/>
<path d="M0 0 C2.97 0 5.94 0 9 0 C9 0.66 9 1.32 9 2 C10.32 2.33 11.64 2.66 13 3 C13 7.62 13 12.24 13 17 C17.29 17 21.58 17 26 17 C26 17.66 26 18.32 26 19 C26.99 19 27.98 19 29 19 C29.125 26.75 29.125 26.75 28 29 C23.05 29 18.1 29 13 29 C13.07405864 33.62738836 13.15693041 38.2528631 13.26245117 42.87939453 C13.29566372 44.45253522 13.32370717 46.02579401 13.34643555 47.59912109 C13.38005028 49.86346672 13.43236624 52.12673365 13.48828125 54.390625 C13.49467117 55.09181458 13.5010611 55.79300415 13.50764465 56.51544189 C13.62965992 60.58617674 14.01499046 63.12464568 17 66 C19.90516198 67.09060376 19.90516198 67.09060376 23.125 67.6875 C28.93435115 68.93435115 28.93435115 68.93435115 30 70 C30.1875 72.9375 30.1875 72.9375 30 76 C27.49422158 78.50577842 25.9059617 78.28673131 22.47851562 78.32226562 C21.76373047 78.31904297 21.04894531 78.31582031 20.3125 78.3125 C19.61705078 78.32861328 18.92160156 78.34472656 18.20507812 78.36132812 C13.11115654 78.36608435 9.48702066 77.4595094 5 75 C4.67 74.01 4.34 73.02 4 72 C3.34 72 2.68 72 2 72 C2 71.34 2 70.68 2 70 C0.515 69.505 0.515 69.505 -1 69 C-1 67.68 -1 66.36 -1 65 C-1.66 65 -2.32 65 -3 65 C-3 53.12 -3 41.24 -3 29 C-6.3 29 -9.6 29 -13 29 C-16 25 -16 25 -15.6875 21.75 C-15.3471875 20.38875 -15.3471875 20.38875 -15 19 C-11.98509443 17.99503148 -9.95818308 17.89664697 -6.8125 17.9375 C-5.91144531 17.94652344 -5.01039063 17.95554687 -4.08203125 17.96484375 C-3.39496094 17.97644531 -2.70789063 17.98804688 -2 18 C-2.02320313 17.03578125 -2.04640625 16.0715625 -2.0703125 15.078125 C-2.09738281 13.18320312 -2.09738281 13.18320312 -2.125 11.25 C-2.14820313 9.99703125 -2.17140625 8.7440625 -2.1953125 7.453125 C-2 4 -2 4 0 0 Z " fill="#3C3C3C" transform="translate(813,361)"/>
<path d="M0 0 C1.23895149 0.73372332 2.4688641 1.48300767 3.6875 2.25 C4.780625 2.806875 5.87375 3.36375 7 3.9375 C11.39541043 7.71959735 12.3976472 12.19044271 12.93359375 17.84765625 C13.05815638 22.70559892 12.59781988 26.7129903 10.6875 31.25 C10.0275 31.25 9.3675 31.25 8.6875 31.25 C8.460625 31.806875 8.23375 32.36375 8 32.9375 C5.59511883 37.17467158 2.97229988 39.73113851 -1.5625 41.5625 C-8.37087102 42.81070135 -14.83013177 42.99254041 -21.3125 40.25 C-23.43631866 38.37351213 -24.69910106 36.64565297 -26.3125 34.25 C-26.3125 33.26 -26.3125 32.27 -26.3125 31.25 C-27.3025 30.92 -28.2925 30.59 -29.3125 30.25 C-31.85694987 23.73444338 -30.9438589 14.51514025 -28.3125 8.25 C-20.86022136 -0.41075626 -11.13066114 -5.47937952 0 0 Z " fill="#FD2F5A" transform="translate(679.3125,286.75)"/>
<path d="M0 0 C1.25425781 0.02707031 2.50851562 0.05414063 3.80078125 0.08203125 C4.75339844 0.11683594 5.70601562 0.15164063 6.6875 0.1875 C6.6875 0.8475 6.6875 1.5075 6.6875 2.1875 C7.595 2.435 8.5025 2.6825 9.4375 2.9375 C12.81246123 4.23556201 14.42852121 5.40721841 16.6875 8.1875 C16.6875 8.8475 16.6875 9.5075 16.6875 10.1875 C17.3475 10.1875 18.0075 10.1875 18.6875 10.1875 C21.46221079 16.43059927 22.06384203 21.38546625 21.6875 28.1875 C21.0275 28.1875 20.3675 28.1875 19.6875 28.1875 C19.6875 29.033125 19.6875 29.87875 19.6875 30.75 C17.95033285 36.72151207 12.70456496 39.84279003 7.6875 43.1875 C1.67604317 44.90505909 -4.69189516 45.07375654 -10.3125 42.1875 C-11.5809375 41.56875 -11.5809375 41.56875 -12.875 40.9375 C-15.92307947 38.74913526 -17.4814341 36.44272826 -19.3125 33.1875 C-19.3125 32.1975 -19.3125 31.2075 -19.3125 30.1875 C-19.9725 30.1875 -20.6325 30.1875 -21.3125 30.1875 C-22.96024582 23.39054851 -22.44979958 17.73297997 -20.3125 11.1875 C-19.6525 11.1875 -18.9925 11.1875 -18.3125 11.1875 C-18.250625 10.61 -18.18875 10.0325 -18.125 9.4375 C-16.96880613 6.23573237 -15.06567339 5.1272358 -12.3125 3.1875 C-11.58160156 2.65640625 -10.85070312 2.1253125 -10.09765625 1.578125 C-6.5453783 -0.1955229 -3.94838037 -0.11070225 0 0 Z " fill="#FD2E59" transform="translate(528.3125,284.8125)"/>
<path d="M0 0 C3 2 3 2 3.67941284 3.65208435 C4.13079874 6.9579436 4.13888304 10.23731713 4.12939453 13.56665039 C4.13114685 14.32319412 4.13289917 15.07973785 4.13470459 15.85920715 C4.13909937 18.35538031 4.13619376 20.8514824 4.1328125 23.34765625 C4.13348615 25.08353184 4.13445669 26.81940733 4.13571167 28.55528259 C4.13718537 32.19091694 4.13504434 35.82652671 4.13037109 39.4621582 C4.12466976 44.12513971 4.12795745 48.78806372 4.13394356 53.45104313 C4.13755438 57.03434178 4.13640825 60.61762677 4.13381577 64.20092583 C4.13314816 65.92054692 4.13396911 67.64016925 4.13629532 69.35978889 C4.13883083 71.76080752 4.13496871 74.1617325 4.12939453 76.56274414 C4.13141876 77.27503174 4.13344299 77.98731934 4.13552856 78.72119141 C4.12242774 81.76266467 3.97022144 84.08933569 3 87 C0.67313547 88.16343227 -0.84721413 88.19895988 -3.4375 88.25 C-4.61119141 88.28867187 -4.61119141 88.28867187 -5.80859375 88.328125 C-8 88 -8 88 -9.61567688 86.97123718 C-11.76114967 83.91614428 -11.39190286 80.72954904 -11.34057617 77.13208008 C-11.34101425 76.33184921 -11.34145233 75.53161835 -11.34190369 74.70713806 C-11.33981297 72.06102128 -11.31646894 69.4155374 -11.29296875 66.76953125 C-11.28737379 64.93536221 -11.28310322 63.10118868 -11.28010559 61.26701355 C-11.26864891 56.43852367 -11.23917465 51.61030434 -11.20599365 46.78192139 C-11.17531051 41.85530253 -11.16160401 36.92863998 -11.14648438 32.00195312 C-11.11430574 22.33451652 -11.06309943 12.66728075 -11 3 C-10.34 3 -9.68 3 -9 3 C-9 2.34 -9 1.68 -9 1 C-5.98131566 -0.50934217 -3.32702771 -0.17510672 0 0 Z " fill="#383838" transform="translate(783,351)"/>
<path d="M0 0 C6.06375 -0.0309375 6.06375 -0.0309375 12.25 -0.0625 C13.51875977 -0.071604 14.78751953 -0.08070801 16.09472656 -0.09008789 C17.09987305 -0.09258545 18.10501953 -0.09508301 19.140625 -0.09765625 C20.68024902 -0.10551147 20.68024902 -0.10551147 22.25097656 -0.11352539 C24.67625656 -0.01336951 26.68697361 0.30076922 29 1 C29 1.66 29 2.32 29 3 C29.78375 3.0825 30.5675 3.165 31.375 3.25 C34 4 34 4 35.14453125 5.64453125 C36.24123642 8.66422631 36.30136803 11.22778304 36.3125 14.4375 C36.32925781 15.54996094 36.34601563 16.66242188 36.36328125 17.80859375 C35.96262352 21.32835041 35.11083085 23.1838675 33 26 C26.13691497 29.70977569 18.19356343 29.12548775 10.625 29.0625 C7.11875 29.041875 3.6125 29.02125 0 29 C0 19.43 0 9.86 0 0 Z " fill="#FBFBFB" transform="translate(453,364)"/>
<path d="M0 0 C2.875 1.3125 2.875 1.3125 5 3 C6.82765223 8.48295668 7.36366982 14.98080482 4.94140625 20.34375 C2.85844633 23.09845038 1.27780439 24.75497299 -2.1796875 25.41796875 C-4.375 25.4375 -4.375 25.4375 -8 25 C-8 24.34 -8 23.68 -8 23 C-8.61875 22.731875 -9.2375 22.46375 -9.875 22.1875 C-12 21 -12 21 -14 18 C-14.77340507 12.28494359 -15.14075256 7.53101002 -11.625 2.8125 C-7.46213603 -0.06185846 -5.10390446 -0.34602742 0 0 Z " fill="#F6F6F6" transform="translate(581,475)"/>
<path d="M0 0 C1.13598633 0.00483398 1.13598633 0.00483398 2.29492188 0.00976562 C3.47344727 0.02233398 3.47344727 0.02233398 4.67578125 0.03515625 C5.47306641 0.03966797 6.27035156 0.04417969 7.09179688 0.04882812 C9.05732382 0.06059775 11.0228121 0.07853277 12.98828125 0.09765625 C13.100149 5.59891713 12.85983054 9.2808639 9.98828125 14.09765625 C5.26873746 16.91123043 1.428362 17.516124 -4.01171875 17.09765625 C-5.00171875 16.76765625 -5.99171875 16.43765625 -7.01171875 16.09765625 C-7.01171875 15.43765625 -7.01171875 14.77765625 -7.01171875 14.09765625 C-7.67171875 14.09765625 -8.33171875 14.09765625 -9.01171875 14.09765625 C-10.60082642 10.9194409 -10.41592849 7.55825896 -10.01171875 4.09765625 C-7.53238977 0.43769442 -4.2091259 -0.03164756 0 0 Z " fill="#F6F6F6" transform="translate(656.01171875,411.90234375)"/>
<path d="M0 0 C11.25 0 11.25 0 14 1 C15.375 2.625 15.375 2.625 16 5 C15.625 8.75 15.625 8.75 15 12 C13.68 12.33 12.36 12.66 11 13 C11.7425 14.175625 11.7425 14.175625 12.5 15.375 C14 18 14 18 14 20 C14.66 20 15.32 20 16 20 C16.33 21.65 16.66 23.3 17 25 C15.68 25 14.36 25 13 25 C12.69707031 24.28972656 12.39414062 23.57945312 12.08203125 22.84765625 C11.66308594 21.92855469 11.24414062 21.00945312 10.8125 20.0625 C10.40644531 19.14597656 10.00039063 18.22945313 9.58203125 17.28515625 C7.9704933 14.39211675 7.9704933 14.39211675 3 14 C3 17.63 3 21.26 3 25 C2.01 25 1.02 25 0 25 C0 16.75 0 8.5 0 0 Z " fill="#4B4B4B" transform="translate(617,475)"/>
<path d="M0 0 C3.96 0 7.92 0 12 0 C16 4 16 4 16.2421875 6.0703125 C15.22222222 11.77777778 15.22222222 11.77777778 13 14 C9.67779179 14.57730175 6.36712849 14.74099012 3 15 C3 18.3 3 21.6 3 25 C2.01 25 1.02 25 0 25 C0 16.75 0 8.5 0 0 Z " fill="#4C4C4C" transform="translate(458,475)"/>
<path d="M0 0 C1.32 0 2.64 0 4 0 C8 6.75 8 6.75 8 9 C8.66 9 9.32 9 10 9 C10.99 11.31 11.98 13.62 13 16 C13.33 10.72 13.66 5.44 14 0 C15.32 0 16.64 0 18 0 C18 8.25 18 16.5 18 25 C16.35 25 14.7 25 13 25 C12.3503125 23.1746875 12.3503125 23.1746875 11.6875 21.3125 C10.43920465 17.95399109 8.88522192 15.05226406 7 12 C7 11.34 7 10.68 7 10 C6.34 10 5.68 10 5 10 C5 9.01 5 8.02 5 7 C4.34 7 3.68 7 3 7 C3 12.94 3 18.88 3 25 C2.01 24.67 1.02 24.34 0 24 C0 16.08 0 8.16 0 0 Z " fill="#9C9C9C" transform="translate(719,475)"/>
<path d="M0 0 C1.32 0 2.64 0 4 0 C4.18175781 0.56847656 4.36351562 1.13695312 4.55078125 1.72265625 C6.14084634 6.60701003 7.90459778 11.31029027 10 16 C10.48198463 14.75108386 10.96045677 13.50081192 11.4375 12.25 C11.83775391 11.20585937 11.83775391 11.20585937 12.24609375 10.140625 C12.96146693 8.10940997 13.51365652 6.0964709 14 4 C14.66 4 15.32 4 16 4 C16.33 2.68 16.66 1.36 17 0 C17.99 0 18.98 0 20 0 C20 8.25 20 16.5 20 25 C19.01 25 18.02 25 17 25 C16.67 20.05 16.34 15.1 16 10 C14.28232318 13.98188718 12.58962659 17.96479403 11 22 C10.01 21.67 9.02 21.34 8 21 C7.0859375 19.07421875 7.0859375 19.07421875 6.375 16.6875 C6.13523437 15.90761719 5.89546875 15.12773437 5.6484375 14.32421875 C5.22851736 12.81908329 4.85530257 11.29981158 4.5390625 9.76953125 C4.36117188 9.18558594 4.18328125 8.60164063 4 8 C3.34 7.67 2.68 7.34 2 7 C2 12.61 2 18.22 2 24 C1.34 24 0.68 24 0 24 C0 16.08 0 8.16 0 0 Z " fill="#5A5A5A" transform="translate(431,475)"/>
<path d="M0 0 C2.875 1.3125 2.875 1.3125 5 3 C6.82765223 8.48295668 7.36366982 14.98080482 4.94140625 20.34375 C2.85844633 23.09845038 1.27780439 24.75497299 -2.1796875 25.41796875 C-4.375 25.4375 -4.375 25.4375 -8 25 C-8 24.34 -8 23.68 -8 23 C-8.61875 22.731875 -9.2375 22.46375 -9.875 22.1875 C-12 21 -12 21 -14 18 C-14.77340507 12.28494359 -15.14075256 7.53101002 -11.625 2.8125 C-7.46213603 -0.06185846 -5.10390446 -0.34602742 0 0 Z M-9 4 C-10.01702117 7.0510635 -10.16582083 9.24199061 -10.1875 12.4375 C-10.20167969 13.38496094 -10.21585938 14.33242188 -10.23046875 15.30859375 C-9.99614518 18.04501644 -9.39701383 19.66428123 -8 22 C-6.1128125 22.0928125 -6.1128125 22.0928125 -4.1875 22.1875 C-3.47980469 22.22230469 -2.77210938 22.25710938 -2.04296875 22.29296875 C0.05546014 22.1383754 0.05546014 22.1383754 1.74609375 20.86328125 C3.53817729 18.20027861 3.32789913 16.17828468 3.25 13 C3.23453125 11.948125 3.2190625 10.89625 3.203125 9.8125 C3.11065229 6.92017648 3.11065229 6.92017648 2 4 C-1.398985 2.3005075 -5.601015 2.3005075 -9 4 Z " fill="#626262" transform="translate(581,475)"/>
<path d="M0 0 C1.32 0 2.64 0 4 0 C4.33 7.26 4.66 14.52 5 22 C7.31 22 9.62 22 12 22 C12.90833969 19.27498092 13.18359985 17.37766029 13.31640625 14.55078125 C13.35830078 13.70322266 13.40019531 12.85566406 13.44335938 11.98242188 C13.50233398 10.66081055 13.50233398 10.66081055 13.5625 9.3125 C13.60568359 8.41982422 13.64886719 7.52714844 13.69335938 6.60742188 C13.79935353 4.40509892 13.90142051 2.20266527 14 0 C14.99 0 15.98 0 17 0 C17.11667875 3.22886009 17.18740546 6.45717445 17.25 9.6875 C17.30027344 11.05551758 17.30027344 11.05551758 17.3515625 12.45117188 C17.41402349 16.74536473 17.39212118 19.31184031 15.23046875 23.10546875 C12.57335194 25.36238933 10.54938364 25.59543969 7.09765625 25.6640625 C3.56634764 24.54614357 2.17926016 22.98708935 0 20 C-0.60086048 16.53904361 -0.47323995 13.18668498 -0.3125 9.6875 C-0.28994141 8.75615234 -0.26738281 7.82480469 -0.24414062 6.86523438 C-0.18542078 4.5751604 -0.10336858 2.28842125 0 0 Z " fill="#727272" transform="translate(593,475)"/>
<path d="M0 0 C4.40431982 2.20215991 5.5721404 3.83795497 8 8 C8 8.66 8 9.32 8 10 C8.66 10 9.32 10 10 10 C10.66 12.31 11.32 14.62 12 17 C12.66 17 13.32 17 14 17 C14 11.39 14 5.78 14 0 C14.99 0 15.98 0 17 0 C17 8.25 17 16.5 17 25 C15.68 25 14.36 25 13 25 C12.51789062 24.02417969 12.03578125 23.04835938 11.5390625 22.04296875 C10.90114842 20.75775951 10.26312169 19.47260618 9.625 18.1875 C9.30789063 17.54490234 8.99078125 16.90230469 8.6640625 16.24023438 C7.23541389 13.36805539 5.78214527 10.6732179 4 8 C4 7.01 4 6.02 4 5 C3.34 5 2.68 5 2 5 C2 11.27 2 17.54 2 24 C1.34 24 0.68 24 0 24 C0 16.08 0 8.16 0 0 Z " fill="#707070" transform="translate(675,475)"/>
<path d="M0 0 C4.62 0 9.24 0 14 0 C14 0.99 14 1.98 14 3 C10.7 3 7.4 3 4 3 C4 5.64 4 8.28 4 11 C6.97 11 9.94 11 13 11 C13 11.66 13 12.32 13 13 C10.03 13 7.06 13 4 13 C4 15.97 4 18.94 4 22 C7.63 22 11.26 22 15 22 C15 22.99 15 23.98 15 25 C10.05 25 5.1 25 0 25 C0 16.75 0 8.5 0 0 Z " fill="#727272" transform="translate(764,475)"/>
<path d="M0 0 C1.17755859 0.02320313 1.17755859 0.02320313 2.37890625 0.046875 C4.4375 0.25 4.4375 0.25 6.4375 1.25 C6.4375 2.24 6.4375 3.23 6.4375 4.25 C3.1375 3.92 -0.1625 3.59 -3.5625 3.25 C-3.5625 4.9 -3.5625 6.55 -3.5625 8.25 C-2.62277344 8.75660156 -2.62277344 8.75660156 -1.6640625 9.2734375 C-0.84679687 9.71945312 -0.02953125 10.16546875 0.8125 10.625 C1.62460937 11.06585938 2.43671875 11.50671875 3.2734375 11.9609375 C5.4375 13.25 5.4375 13.25 7.4375 15.25 C7.5625 18.875 7.5625 18.875 7.4375 22.25 C6.1175 22.58 4.7975 22.91 3.4375 23.25 C3.4375 23.91 3.4375 24.57 3.4375 25.25 C2.00094146 25.33131463 0.5630517 25.38933559 -0.875 25.4375 C-2.07576172 25.48970703 -2.07576172 25.48970703 -3.30078125 25.54296875 C-5.5625 25.25 -5.5625 25.25 -7.35546875 23.86328125 C-8.5625 22.25 -8.5625 22.25 -8.5625 20.25 C-7.5725 20.25 -6.5825 20.25 -5.5625 20.25 C-5.5625 20.91 -5.5625 21.57 -5.5625 22.25 C-1.6025 21.755 -1.6025 21.755 2.4375 21.25 C2.7675 19.6 3.0975 17.95 3.4375 16.25 C2.90640625 16.00765625 2.3753125 15.7653125 1.828125 15.515625 C-6.1302462 11.73975545 -6.1302462 11.73975545 -8.5625 8.25 C-8.49268896 5.38774735 -8.04643764 3.87199347 -6.2890625 1.61328125 C-4.06206497 -0.14513988 -2.80462061 -0.09240925 0 0 Z " fill="#6C6C6C" transform="translate(408.5625,474.75)"/>
<path d="M0 0 C0.99 0.66 1.98 1.32 3 2 C3 2.66 3 3.32 3 4 C-0.63 3.67 -4.26 3.34 -8 3 C-7.50847518 7.86132495 -7.50847518 7.86132495 -5 10 C-3.845 10.268125 -2.69 10.53625 -1.5 10.8125 C2 12 2 12 3.4375 14.3125 C3.99357021 16.9692799 4.15459007 19.29467373 4 22 C3.34 22 2.68 22 2 22 C2 22.66 2 23.32 2 24 C-0.32686453 25.16343227 -1.84721413 25.19895988 -4.4375 25.25 C-5.21996094 25.27578125 -6.00242187 25.3015625 -6.80859375 25.328125 C-9.50801348 24.92393381 -10.37459544 24.15326907 -12 22 C-12 21.34 -12 20.68 -12 20 C-11.01 20 -10.02 20 -9 20 C-9 20.66 -9 21.32 -9 22 C-5.04 21.505 -5.04 21.505 -1 21 C-0.67 19.35 -0.34 17.7 0 16 C-2.475 15.01 -2.475 15.01 -5 14 C-5 13.34 -5 12.68 -5 12 C-5.598125 11.9175 -6.19625 11.835 -6.8125 11.75 C-9.6788626 10.76724711 -10.56592275 9.64172124 -12 7 C-11.91664454 4.24926996 -11.24237383 3.26101797 -9.375 1.25 C-6.10070334 -0.47331403 -3.6474931 -0.33159028 0 0 Z " fill="#686868" transform="translate(795,475)"/>
<path d="M0 0 C4.62 0 9.24 0 14 0 C14 0.99 14 1.98 14 3 C10.37 3 6.74 3 3 3 C3 5.64 3 8.28 3 11 C6.3 11 9.6 11 13 11 C13 11.99 13 12.98 13 14 C9.7 14 6.4 14 3 14 C3 17.63 3 21.26 3 25 C2.01 25 1.02 25 0 25 C0 16.75 0 8.5 0 0 Z " fill="#595959" transform="translate(507,475)"/>
<path d="M0 0 C4.62 0 9.24 0 14 0 C14 0.99 14 1.98 14 3 C10.37 3 6.74 3 3 3 C3 5.64 3 8.28 3 11 C6.3 11 9.6 11 13 11 C13 11.99 13 12.98 13 14 C9.7 14 6.4 14 3 14 C3 17.3 3 20.6 3 24 C2.01 24 1.02 24 0 24 C0 16.08 0 8.16 0 0 Z " fill="#636363" transform="translate(646,475)"/>
<path d="M0 0 C0.99 0 1.98 0 3 0 C3 0.66 3 1.32 3 2 C2.34 2 1.68 2 1 2 C0.01 5.96 -0.98 9.92 -2 14 C0.31 14 2.62 14 5 14 C4.34 10.37 3.68 6.74 3 3 C3.66 3 4.32 3 5 3 C5.33 5.64 5.66 8.28 6 11 C6.66 11 7.32 11 8 11 C9.29243536 15.1196377 10.26252625 18.66831683 10 23 C9.34 23 8.68 23 8 23 C7.34 20.69 6.68 18.38 6 16 C3.03 16 0.06 16 -3 16 C-3.33 18.64 -3.66 21.28 -4 24 C-5.32 24 -6.64 24 -8 24 C-8 22.02 -8 20.04 -8 18 C-7.34 18 -6.68 18 -6 18 C-5.67 15.36 -5.34 12.72 -5 10 C-4.34 10 -3.68 10 -3 10 C-2.67 7.69 -2.34 5.38 -2 3 C-1.34 3 -0.68 3 0 3 C0 2.01 0 1.02 0 0 Z " fill="#505050" transform="translate(704,476)"/>
<path d="M0 0 C1.32 0 2.64 0 4 0 C4 7.26 4 14.52 4 22 C7.3 22 10.6 22 14 22 C14 22.99 14 23.98 14 25 C9.38 25 4.76 25 0 25 C0 16.75 0 8.5 0 0 Z " fill="#676767" transform="translate(479,475)"/>
<path d="M0 0 C0.66 0.33 1.32 0.66 2 1 C2 1.99 2 2.98 2 4 C1.38511719 3.96519531 0.77023437 3.93039062 0.13671875 3.89453125 C-1.07564453 3.85392578 -1.07564453 3.85392578 -2.3125 3.8125 C-3.11300781 3.77769531 -3.91351562 3.74289062 -4.73828125 3.70703125 C-7.04555397 3.82831243 -7.04555397 3.82831243 -8.76953125 5.23828125 C-11.06571165 8.52582843 -10.45682803 12.16398819 -10 16 C-9.38560001 19.16568268 -9.38560001 19.16568268 -7 21 C-3.6278066 21.4127 -0.37913907 21.28529317 3 21 C1.41181179 22.88101041 0.52451507 23.90165342 -1.9375 24.36328125 C-2.9584375 24.33814453 -2.9584375 24.33814453 -4 24.3125 C-5.0209375 24.30669922 -5.0209375 24.30669922 -6.0625 24.30078125 C-8 24 -8 24 -11 22 C-11 21.34 -11 20.68 -11 20 C-11.66 20 -12.32 20 -13 20 C-14.96010221 16.07979559 -14.3528633 11.28388424 -14 7 C-10.98204777 -0.04188854 -6.94408179 -0.33067056 0 0 Z " fill="#6C6C6C" transform="translate(756,475)"/>
<path d="M0 0 C0.99 0 1.98 0 3 0 C3.27714844 0.62648438 3.55429687 1.25296875 3.83984375 1.8984375 C4.20207031 2.71570313 4.56429687 3.53296875 4.9375 4.375 C5.29714844 5.18710937 5.65679688 5.99921875 6.02734375 6.8359375 C6.6569903 8.23683785 7.31312642 9.62625284 8 11 C9.98 7.37 11.96 3.74 14 0 C14.99 0.33 15.98 0.66 17 1 C16.73445312 1.49628906 16.46890625 1.99257813 16.1953125 2.50390625 C12.37697608 9.84793287 10.70733628 16.79117632 10 25 C8.68 25 7.36 25 6 25 C5.96132813 23.7315625 5.96132813 23.7315625 5.921875 22.4375 C5.55831691 15.16633818 4.65300383 10.27860034 1 4 C0.62674747 2.67728634 0.28254099 1.34501282 0 0 Z " fill="#888888" transform="translate(523,475)"/>
<path d="M0 0 C1.8671875 0.21875 1.8671875 0.21875 4 1 C5.1953125 3.03125 5.1953125 3.03125 6.125 5.5 C7.24356487 8.96577356 7.24356487 8.96577356 10 11 C10.33 9.02 10.66 7.04 11 5 C11.66 5 12.32 5 13 5 C13.33 3.35 13.66 1.7 14 0 C14.99 0 15.98 0 17 0 C16.67 1.65 16.34 3.3 16 5 C15.34 5 14.68 5 14 5 C13.855625 5.763125 13.71125 6.52625 13.5625 7.3125 C13 10 13 10 12 13 C11.34 13 10.68 13 10 13 C10 16.96 10 20.92 10 25 C9.01 25 8.02 25 7 25 C6.67 20.38 6.34 15.76 6 11 C5.34 11 4.68 11 4 11 C3.34 8.36 2.68 5.72 2 3 C1.34 3 0.68 3 0 3 C0 2.01 0 1.02 0 0 Z " fill="#545454" transform="translate(548,475)"/>
<path d="M0 0 C8.58 0 17.16 0 26 0 C22.74610012 2.16926659 21.86604043 2.24080049 18.11328125 2.1953125 C16.7065918 2.18564453 16.7065918 2.18564453 15.27148438 2.17578125 C13.80678711 2.15064453 13.80678711 2.15064453 12.3125 2.125 C11.32443359 2.11597656 10.33636719 2.10695313 9.31835938 2.09765625 C6.87866235 2.0740843 4.43945303 2.04118022 2 2 C2.00523682 2.73114014 2.01047363 3.46228027 2.01586914 4.21557617 C2.03670161 7.53954198 2.04968014 10.86349403 2.0625 14.1875 C2.07087891 15.33798828 2.07925781 16.48847656 2.08789062 17.67382812 C2.09111328 18.78564453 2.09433594 19.89746094 2.09765625 21.04296875 C2.10289307 22.06414795 2.10812988 23.08532715 2.11352539 24.13745117 C2.00519467 26.86901616 1.61706868 29.34169374 1 32 C0.34 32 -0.32 32 -1 32 C-0.67 21.44 -0.34 10.88 0 0 Z " fill="#D7D7D7" transform="translate(452,405)"/>
<path d="M0 0 C1.32 0 2.64 0 4 0 C4 8.25 4 16.5 4 25 C2.68 25 1.36 25 0 25 C0 16.75 0 8.5 0 0 Z " fill="#737373" transform="translate(497,475)"/>
<path d="M0 0 C2.875 1.0625 2.875 1.0625 5 3 C5.8125 6.6875 5.8125 6.6875 6 10 C5.67 10 5.34 10 5 10 C4.67 11.65 4.34 13.3 4 15 C3.67 15 3.34 15 3 15 C2.67 11.37 2.34 7.74 2 4 C-1.63 4 -5.26 4 -9 4 C-9.33 8.62 -9.66 13.24 -10 18 C-10.33 18 -10.66 18 -11 18 C-11.33 14.37 -11.66 10.74 -12 7 C-12.33 10.63 -12.66 14.26 -13 18 C-13.33 18 -13.66 18 -14 18 C-14.78557482 7.05432411 -14.78557482 7.05432411 -11.625 2.8125 C-7.46213603 -0.06185846 -5.10390446 -0.34602742 0 0 Z " fill="#707070" transform="translate(581,475)"/>
<path d="M0 0 C6.8359375 -0.1953125 6.8359375 -0.1953125 9 0 C9.66 0.66 10.32 1.32 11 2 C10.8125 4.5 10.8125 4.5 10 7 C6.3558226 9.4294516 4.28758728 9.16179575 0 9 C0 6.03 0 3.06 0 0 Z " fill="#EEEEEE" transform="translate(620,478)"/>
<path d="M0 0 C6.93359375 -0.09765625 6.93359375 -0.09765625 9 0 C10 1 10 1 10.1875 3.9375 C10 7 10 7 8 9 C5.31160615 9.26991906 2.70858064 9.08737357 0 9 C0 6.03 0 3.06 0 0 Z " fill="#F9F9F9" transform="translate(461,478)"/>
<path d="M0 0 C0.99 0 1.98 0 3 0 C3 8.25 3 16.5 3 25 C2.01 25 1.02 25 0 25 C-0.06058594 23.81921875 -0.12117188 22.6384375 -0.18359375 21.421875 C-0.26802582 19.8645723 -0.35267249 18.30728121 -0.4375 16.75 C-0.47681641 15.97269531 -0.51613281 15.19539063 -0.55664062 14.39453125 C-0.59853516 13.64042969 -0.64042969 12.88632812 -0.68359375 12.109375 C-0.72025146 11.41811523 -0.75690918 10.72685547 -0.79467773 10.01464844 C-0.94809117 7.96182061 -0.94809117 7.96182061 -1.57836914 5.88378906 C-2.14774633 3.3398896 -1.31865641 2.17190468 0 0 Z " fill="#555555" transform="translate(448,475)"/>
<path d="M0 0 C1.65 0 3.3 0 5 0 C5 0.99 5 1.98 5 3 C5.66 3 6.32 3 7 3 C7.33 5.97 7.66 8.94 8 12 C6 8 6 8 6 4 C5.34 4 4.68 4 4 4 C4.33 5.258125 4.66 6.51625 5 7.8125 C5.67603227 10.38987302 6 12.30212925 6 15 C3.69 15 1.38 15 -1 15 C-0.88541307 13.56163249 -0.75790884 12.12429034 -0.625 10.6875 C-0.55539062 9.88699219 -0.48578125 9.08648437 -0.4140625 8.26171875 C0 6 0 6 2 3 C2.66 3 3.32 3 4 3 C4 2.34 4 1.68 4 1 C3.01 1 2.02 1 1 1 C0.67 1.99 0.34 2.98 0 4 C0 2.68 0 1.36 0 0 Z " fill="#C4C4C4" transform="translate(703,475)"/>
<path d="M0 0 C10.125 0 10.125 0 14 1 C12 3 12 3 9.8359375 3.1953125 C8.61777344 3.16050781 8.61777344 3.16050781 7.375 3.125 C6.55773437 3.10695313 5.74046875 3.08890625 4.8984375 3.0703125 C4.27195312 3.04710937 3.64546875 3.02390625 3 3 C3 3.62648438 3 4.25296875 3 4.8984375 C3 11.59895833 3 18.29947917 3 25 C2.01 25 1.02 25 0 25 C0 16.75 0 8.5 0 0 Z " fill="#646464" transform="translate(617,475)"/>
<path d="M0 0 C0.99 0 1.98 0 3 0 C3 8.25 3 16.5 3 25 C2.01 25 1.02 25 0 25 C0 16.75 0 8.5 0 0 Z " fill="#565656" transform="translate(665,475)"/>
<path d="M0 0 C0.99 0 1.98 0 3 0 C3 8.25 3 16.5 3 25 C2.01 25 1.02 25 0 25 C0 16.75 0 8.5 0 0 Z " fill="#616161" transform="translate(421,475)"/>
<path d="M0 0 C1.17755859 0.02320313 1.17755859 0.02320313 2.37890625 0.046875 C4.4375 0.25 4.4375 0.25 6.4375 1.25 C6.4375 2.24 6.4375 3.23 6.4375 4.25 C3.1375 3.92 -0.1625 3.59 -3.5625 3.25 C-3.5625 4.9 -3.5625 6.55 -3.5625 8.25 C-2.2425 8.91 -0.9225 9.57 0.4375 10.25 C-1.5425 11.24 -1.5425 11.24 -3.5625 12.25 C-5.2125 10.93 -6.8625 9.61 -8.5625 8.25 C-7.78278892 2.48013803 -6.06500817 -0.19983552 0 0 Z " fill="#6B6B6B" transform="translate(408.5625,474.75)"/>
<path d="M0 0 C-0.73605469 0.36351562 -1.47210937 0.72703125 -2.23046875 1.1015625 C-13.31266757 6.81101764 -17.64029291 14.03572611 -23 25 C-23.66 25 -24.32 25 -25 25 C-22.35414328 16.04998466 -17.07530201 6.09095127 -9 1 C-3.76923077 -1.25641026 -3.76923077 -1.25641026 0 0 Z " fill="#FDB1A9" transform="translate(597,163)"/>
<path d="M0 0 C1.32 0 2.64 0 4 0 C4.33 1.98 4.66 3.96 5 6 C4.01 5.67 3.02 5.34 2 5 C2 11.27 2 17.54 2 24 C1.34 24 0.68 24 0 24 C0 16.08 0 8.16 0 0 Z " fill="#5E5E5E" transform="translate(719,475)"/>
<path d="M0 0 C0.33 0 0.66 0 1 0 C1 2.97 1 5.94 1 9 C3.64 8.67 6.28 8.34 9 8 C9.66 6.02 10.32 4.04 11 2 C11.33 2 11.66 2 12 2 C12 4.64 12 7.28 12 10 C8.17010894 11.80230168 5.21878192 12.19622241 1 12 C1 15.3 1 18.6 1 22 C0.01 21.67 -0.98 21.34 -2 21 C-1.34 21 -0.68 21 0 21 C0 14.07 0 7.14 0 0 Z " fill="#767676" transform="translate(460,478)"/>
<path d="M0 0 C0.99 0.33 1.98 0.66 3 1 C2.72285156 1.54269531 2.44570313 2.08539063 2.16015625 2.64453125 C1.61681641 3.71767578 1.61681641 3.71767578 1.0625 4.8125 C0.70285156 5.52019531 0.34320312 6.22789062 -0.02734375 6.95703125 C-1.10730516 9.11810285 -1.10730516 9.11810285 -2 12 C-2.66 12 -3.32 12 -4 12 C-4.33 15.96 -4.66 19.92 -5 24 C-5.66 24 -6.32 24 -7 24 C-7 20.04 -7 16.08 -7 12 C-6.34 12 -5.68 12 -5 12 C-4.731875 11.13375 -4.46375 10.2675 -4.1875 9.375 C-3.02888013 6.08208036 -1.61790161 3.08872125 0 0 Z " fill="#6A6A6A" transform="translate(537,475)"/>
<path d="M0 0 C1.98 0.99 1.98 0.99 4 2 C4.75 4.625 4.75 4.625 5 7 C4.67 6.34 4.34 5.68 4 5 C3.34 5 2.68 5 2 5 C2 11.27 2 17.54 2 24 C1.34 24 0.68 24 0 24 C0 16.08 0 8.16 0 0 Z " fill="#333333" transform="translate(675,475)"/>
<path d="M0 0 C0.99 0 1.98 0 3 0 C3 1.65 3 3.3 3 5 C2.34 5 1.68 5 1 5 C1 5.66 1 6.32 1 7 C-1.32686453 8.16343227 -2.84721413 8.19895988 -5.4375 8.25 C-6.21996094 8.27578125 -7.00242187 8.3015625 -7.80859375 8.328125 C-10.50801348 7.92393381 -11.37459544 7.15326907 -13 5 C-13 4.34 -13 3.68 -13 3 C-12.01 3 -11.02 3 -10 3 C-10 3.66 -10 4.32 -10 5 C-5.94914321 4.75368443 -5.94914321 4.75368443 -2 4 C-0.4100567 2.07935207 -0.4100567 2.07935207 0 0 Z " fill="#6A6A6A" transform="translate(796,492)"/>
<path d="M0 0 C1.25425781 0.02707031 2.50851562 0.05414063 3.80078125 0.08203125 C4.75339844 0.11683594 5.70601562 0.15164063 6.6875 0.1875 C6.6875 0.8475 6.6875 1.5075 6.6875 2.1875 C1.7375 2.1875 -3.2125 2.1875 -8.3125 2.1875 C-8.3125 2.8475 -8.3125 3.5075 -8.3125 4.1875 C-10.3125 5.52083333 -12.3125 6.85416667 -14.3125 8.1875 C-14.3125 8.8475 -14.3125 9.5075 -14.3125 10.1875 C-15.116875 10.47625 -15.92125 10.765 -16.75 11.0625 C-19.4451468 11.92012568 -19.4451468 11.92012568 -20.3125 14.1875 C-20.3125 13.1975 -20.3125 12.2075 -20.3125 11.1875 C-19.6525 11.1875 -18.9925 11.1875 -18.3125 11.1875 C-18.2196875 10.32125 -18.2196875 10.32125 -18.125 9.4375 C-16.96880613 6.23573237 -15.06567339 5.1272358 -12.3125 3.1875 C-11.58160156 2.65640625 -10.85070312 2.1253125 -10.09765625 1.578125 C-6.5453783 -0.1955229 -3.94838037 -0.11070225 0 0 Z " fill="#FD728E" transform="translate(528.3125,284.8125)"/>
<path d="M0 0 C0.66 0 1.32 0 2 0 C2 7.92 2 15.84 2 24 C1.01 24 0.02 24 -1 24 C-0.67 16.08 -0.34 8.16 0 0 Z " fill="#444444" transform="translate(734,475)"/>
<path d="M0 0 C0.33 0 0.66 0 1 0 C1 1.65 1 3.3 1 5 C4.3 5 7.6 5 11 5 C11 5.33 11 5.66 11 6 C8.03 6 5.06 6 2 6 C1.67 8.64 1.34 11.28 1 14 C-0.32 14 -1.64 14 -3 14 C-3 12.02 -3 10.04 -3 8 C-2.34 8 -1.68 8 -1 8 C-0.67 5.36 -0.34 2.72 0 0 Z " fill="#818181" transform="translate(699,486)"/>
<path d="M0 0 C0.66 0 1.32 0 2 0 C2.33 6.6 2.66 13.2 3 20 C2.01 20 1.02 20 0 20 C0 13.4 0 6.8 0 0 Z " fill="#626262" transform="translate(593,475)"/>
<path d="M0 0 C1.4434948 2.30645365 2.09746152 3.45519011 1.609375 6.18359375 C1.32578125 6.92738281 1.0421875 7.67117188 0.75 8.4375 C0.45996094 9.21867187 0.16992188 9.99984375 -0.12890625 10.8046875 C-0.41636719 11.52914063 -0.70382812 12.25359375 -1 13 C-1.391875 14.010625 -1.78375 15.02125 -2.1875 16.0625 C-2.455625 16.701875 -2.72375 17.34125 -3 18 C-3.99 17.67 -4.98 17.34 -6 17 C-6 15.35 -6 13.7 -6 12 C-5.34 12 -4.68 12 -4 12 C-3.51801537 10.75108386 -3.03954323 9.50081192 -2.5625 8.25 C-2.29566406 7.55390625 -2.02882813 6.8578125 -1.75390625 6.140625 C-1.03853307 4.10940997 -0.48634348 2.0964709 0 0 Z " fill="#7C7C7C" transform="translate(445,479)"/>
<path d="M0 0 C2.58789062 1.12304688 2.58789062 1.12304688 5.17578125 2.24609375 C6.75711021 2.89961942 8.37675406 3.45891802 10 4 C11.4783226 6.95664519 11.06032783 9.74229737 11 13 C10.79375 12.401875 10.5875 11.80375 10.375 11.1875 C8.49073918 8.18981233 6.18867916 7.38638224 3 6 C3 5.34 3 4.68 3 4 C2.01 4 1.02 4 0 4 C0 2.68 0 1.36 0 0 Z " fill="#585858" transform="translate(787,483)"/>
<path d="M0 0 C1.8671875 0.22265625 1.8671875 0.22265625 4 1 C5.1953125 2.99609375 5.1953125 2.99609375 6.125 5.4375 C7.52653197 9.04887035 7.52653197 9.04887035 10 12 C7.03 11.505 7.03 11.505 4 11 C3.34 8.36 2.68 5.72 2 3 C1.34 3 0.68 3 0 3 C0 2.01 0 1.02 0 0 Z " fill="#737373" transform="translate(548,475)"/>
<path d="M0 0 C-0.66 5.28 -1.32 10.56 -2 16 C-2.33 16 -2.66 16 -3 16 C-3.33 12.37 -3.66 8.74 -4 5 C-4.33 8.63 -4.66 12.26 -5 16 C-5.33 16 -5.66 16 -6 16 C-6.08133791 14.08404032 -6.13934367 12.16708068 -6.1875 10.25 C-6.22230469 9.18265625 -6.25710938 8.1153125 -6.29296875 7.015625 C-5.85356804 2.49272702 -4.76543667 0 0 0 Z " fill="#8E8E8E" transform="translate(573,477)"/>
<path d="M0 0 C0.66 0 1.32 0 2 0 C1.45207105 4.6182583 -0.58964488 7.98149647 -3.0625 11.8125 C-3.43955078 12.40998047 -3.81660156 13.00746094 -4.20507812 13.62304688 C-5.12989566 15.08636577 -6.06402065 16.54379523 -7 18 C-7.66 17.67 -8.32 17.34 -9 17 C-8.505 15.515 -8.505 15.515 -8 14 C-7.34 14 -6.68 14 -6 14 C-5.7834375 12.824375 -5.7834375 12.824375 -5.5625 11.625 C-5 9 -5 9 -4 7 C-3.34 7 -2.68 7 -2 7 C-1.855625 6.21625 -1.71125 5.4325 -1.5625 4.625 C-1 2 -1 2 0 0 Z " fill="#FD7488" transform="translate(611,241)"/>
<path d="M0 0 C0.33 0 0.66 0 1 0 C1 3.96 1 7.92 1 12 C1.66 12 2.32 12 3 12 C3.33 12.99 3.66 13.98 4 15 C3.34 15.66 2.68 16.32 2 17 C-1.0954672 13.63571591 -1.35980696 11.32007563 -1.25 6.8125 C-1.23453125 5.74644531 -1.2190625 4.68039062 -1.203125 3.58203125 C-1 1 -1 1 0 0 Z " fill="#4D4D4D" transform="translate(569,481)"/>
<path d="M0 0 C0.61875 0.66 1.2375 1.32 1.875 2 C6.24240721 4.79514062 9.95182061 4.35288244 15 4 C12.55834184 6.86761722 12.11893737 6.98678474 8.0625 7.4375 C4.95139997 7.32291068 4.12241895 7.08875374 1.5 5.1875 C0 3 0 3 0 0 Z " fill="#535353" transform="translate(744,492)"/>
<path d="M0 0 C1.5 1.375 1.5 1.375 3 3 C3 3.66 3 4.32 3 5 C3.66 5 4.32 5 5 5 C5.33 6.65 5.66 8.3 6 10 C4.68 10 3.36 10 2 10 C-1.07692308 4.58461538 -1.07692308 4.58461538 -0.6875 1.625 C-0.460625 1.08875 -0.23375 0.5525 0 0 Z " fill="#7B7B7B" transform="translate(628,490)"/>
<path d="M0 0 C3.21666704 -0.21931821 5.43362303 -0.26828383 8.375 1.125 C10 3 10 3 10.25 6.1875 C10.1675 7.115625 10.085 8.04375 10 9 C9.278125 8.236875 8.55625 7.47375 7.8125 6.6875 C5.30051382 4.28715765 2.99124519 2.70928296 0 1 C0 0.67 0 0.34 0 0 Z " fill="#555555" transform="translate(405,486)"/>
<path d="M0 0 C0.99 0 1.98 0 3 0 C2.67 1.65 2.34 3.3 2 5 C1.34 5 0.68 5 0 5 C-0.12375 5.763125 -0.2475 6.52625 -0.375 7.3125 C-1 10 -1 10 -3 13 C-3.79953138 9.71303767 -4.09658936 8.28976808 -3 5 C-2.34 5 -1.68 5 -1 5 C-0.67 3.35 -0.34 1.7 0 0 Z " fill="#707070" transform="translate(562,475)"/>
<path d="M0 0 C0.66 0.33 1.32 0.66 2 1 C1.34 4.96 0.68 8.92 0 13 C-0.66 13 -1.32 13 -2 13 C-2 9.04 -2 5.08 -2 1 C-1.34 0.67 -0.68 0.34 0 0 Z " fill="#535353" transform="translate(532,486)"/>
<path d="M0 0 C1.98 0.99 1.98 0.99 4 2 C4.75 4.625 4.75 4.625 5 7 C4.67 6.34 4.34 5.68 4 5 C3.34 5 2.68 5 2 5 C2 6.65 2 8.3 2 10 C1.34 9.67 0.68 9.34 0 9 C0 6.03 0 3.06 0 0 Z " fill="#484848" transform="translate(675,475)"/>
<path d="M0 0 C1.99825961 2.99738941 2.27550398 3.63347508 2.25 7 C2.25515625 7.680625 2.2603125 8.36125 2.265625 9.0625 C2 11 2 11 0 14 C-0.66 14 -1.32 14 -2 14 C-1.34 9.38 -0.68 4.76 0 0 Z " fill="#4D4D4D" transform="translate(585,482)"/>
<path d="M0 0 C0.66 0.33 1.32 0.66 2 1 C0.47005208 2.23697917 -1.05989583 3.47395833 -2.58984375 4.7109375 C-4.13266437 5.9666391 -4.13266437 5.9666391 -5 8 C-5.66 8 -6.32 8 -7 8 C-7 8.66 -7 9.32 -7 10 C-7.99 10.33 -8.98 10.66 -10 11 C-8.56314642 5.97101246 -6.05763331 4.04322498 -2 1 C-1.34 0.67 -0.68 0.34 0 0 Z " fill="#FC8A97" transform="translate(625,225)"/>
<path d="M0 0 C0.66 0.33 1.32 0.66 2 1 C1.04882866 2.1725131 0.08882991 3.33787015 -0.875 4.5 C-1.40867187 5.1496875 -1.94234375 5.799375 -2.4921875 6.46875 C-2.98976563 6.9740625 -3.48734375 7.479375 -4 8 C-4.66 8 -5.32 8 -6 8 C-6 8.66 -6 9.32 -6 10 C-6.66 9.67 -7.32 9.34 -8 9 C-5.68462045 5.27885429 -3.71420527 2.38770339 0 0 Z " fill="#FD6585" transform="translate(658,288)"/>
<path d="M0 0 C0.66 0.33 1.32 0.66 2 1 C-0.78999451 4.48749314 -3.25235831 7.50157221 -7 10 C-7.66 9.67 -8.32 9.34 -9 9 C-8.43410156 8.51789063 -7.86820312 8.03578125 -7.28515625 7.5390625 C-6.55167969 6.90742188 -5.81820313 6.27578125 -5.0625 5.625 C-4.33160156 4.99851562 -3.60070312 4.37203125 -2.84765625 3.7265625 C-0.91619094 2.12252286 -0.91619094 2.12252286 0 0 Z " fill="#C8C8C8" transform="translate(415,367)"/>
<path d="M0 0 C1.98 0.99 1.98 0.99 4 2 C4.75 4.625 4.75 4.625 5 7 C4.67 7 4.34 7 4 7 C3.67 8.65 3.34 10.3 3 12 C2.67 12 2.34 12 2 12 C1.34 8.04 0.68 4.08 0 0 Z " fill="#676767" transform="translate(582,478)"/>
<path d="M0 0 C0.66 0.33 1.32 0.66 2 1 C2.75 3.875 2.75 3.875 3 7 C2.01 8.485 2.01 8.485 1 10 C0.63720544 8.71073008 0.28503302 7.41846728 -0.0625 6.125 C-0.35833984 5.04605469 -0.35833984 5.04605469 -0.66015625 3.9453125 C-1 2 -1 2 0 0 Z " fill="#8A8A8A" transform="translate(437,484)"/>
<path d="M0 0 C1.98 0.99 1.98 0.99 4 2 C3.67 4.64 3.34 7.28 3 10 C2.34 9.67 1.68 9.34 1 9 C1.020625 8.071875 1.04125 7.14375 1.0625 6.1875 C1.15769604 2.97713989 1.15769604 2.97713989 0 0 Z " fill="#505050" transform="translate(470,477)"/>
<path d="M0 0 C0.99 0 1.98 0 3 0 C3.185625 0.9590625 3.185625 0.9590625 3.375 1.9375 C3.684375 2.9584375 3.684375 2.9584375 4 4 C4.66 4.33 5.32 4.66 6 5 C5.34 6.32 4.68 7.64 4 9 C0 2.25 0 2.25 0 0 Z " fill="#656565" transform="translate(728,489)"/>
<path d="M0 0 C5.75 -0.125 5.75 -0.125 8 1 C8 1.99 8 2.98 8 4 C5.36 3.34 2.72 2.68 0 2 C0 1.34 0 0.68 0 0 Z " fill="#595959" transform="translate(750,475)"/>
<path d="M0 0 C0.33 0 0.66 0 1 0 C1 2.31 1 4.62 1 7 C0.01 7.33 -0.98 7.66 -2 8 C-2.66 7.34 -3.32 6.68 -4 6 C-2.69593116 3.98079663 -1.36176581 1.98075027 0 0 Z " fill="#7B7B7B" transform="translate(415,490)"/>
<path d="M0 0 C1.32 0.33 2.64 0.66 4 1 C4 1.99 4 2.98 4 4 C0.7 3.67 -2.6 3.34 -6 3 C-6 2.67 -6 2.34 -6 2 C-4.02 1.67 -2.04 1.34 0 1 C0 0.67 0 0.34 0 0 Z " fill="#868686" transform="translate(411,475)"/>
<path d="M0 0 C0.99 0 1.98 0 3 0 C3 1.65 3 3.3 3 5 C2.34 5 1.68 5 1 5 C1 5.66 1 6.32 1 7 C0.34 6.67 -0.32 6.34 -1 6 C-1 3 -1 3 0 0 Z " fill="#808080" transform="translate(796,492)"/>
<path d="M0 0 C0.33 0.66 0.66 1.32 1 2 C1.99 1.67 2.98 1.34 4 1 C3.67 2.65 3.34 4.3 3 6 C2.01 5.67 1.02 5.34 0 5 C0 3.35 0 1.7 0 0 Z " fill="#626262" transform="translate(439,491)"/>
</svg>
